<?xml version="1.0" encoding="UTF-8"?>
<svg width="256" height="256" xmlns="http://www.w3.org/2000/svg">

 <g>
  <title>Layer 1</title>
  <rect id="svg_1" fill="#fafbfd" y="0" x="0" ry="55" rx="55" height="256" width="256"/>
  <rect id="svg_2" fill="#fafbfd" y="5" x="5" ry="50" rx="50" height="246" width="246"/>
  <rect id="svg_3" fill="#fafbfd" y="10" x="10" ry="47" rx="47" height="236" width="236"/>
  <circle id="svg_4" fill="#555" r="24" cy="189" cx="68"/>
  <path id="svg_5" fill="#555" d="m160,213l-34,0a82,82 0 0 0 -82,-82l0,-34a116,116 0 0 1 116,116z"/>
  <path id="svg_6" fill="#555" d="m184,213a140,140 0 0 0 -140,-140l0,-35a175,175 0 0 1 175,175l-35,0z"/>
 </g>
</svg>
